<svg xmlns="http://www.w3.org/2000/svg" width="133" height="168" viewBox="0 0 133 168">
    <defs>
        <linearGradient id="a" x1="50%" x2="50%" y1="0%" y2="96.566%">
            <stop offset="0%" stop-color="#CAD5FF"/>
            <stop offset="100%" stop-color="#CAD5FF" stop-opacity="0"/>
        </linearGradient>
    </defs>
    <g fill="none" fill-rule="evenodd">
        <path fill="#4F6AD1" d="M129.492 111.484H29.306a2.997 2.997 0 0 0-3.001 2.992v4.083a2.997 2.997 0 0 0 3 2.993h100.187a2.997 2.997 0 0 0 3.002-2.993v-4.083a2.997 2.997 0 0 0-3.002-2.992"/>
        <path fill="#3E5AC2" d="M129.492 118.5H29.306a2.997 2.997 0 0 1-3.001-2.992v3.051a2.997 2.997 0 0 0 3 2.993h100.187a2.997 2.997 0 0 0 3.002-2.993v-3.05a2.997 2.997 0 0 1-3.002 2.992"/>
        <path fill="#997C62" d="M125.65 121.552H89.867h35.783"/>
        <path fill="url(#a)" d="M125.643 170h-22.56l-1.847-48.448h24.414c0 16.515-.002 32.644-.007 48.448m-32.27 0h-54.46l-2.225-48.448h53.4L93.373 170"/>
        <path fill="#B7C1EB" d="M65.606 144.959c-.715 0-1.246-.28-1.496-.946h.011c3.764 0 12.644-7.735 12.644-7.735l-1.693-8.916h1.305l1.873 9.861s-8.88 7.736-12.644 7.736M37.379 136.438c-.028-.744-.085-1.483-.096-2.244l.814-.946-1.348-5.886h1.269l1.564 6.832"/>
        <path fill="#3E5AC2" d="M74.694 118.5h-1.306l-.701-3.693c4.416-1.292 9.743-1.752 16.495-2.131 2.147-.01 3.837-.479 5.166-1.192h2.888c-1.477 1.216-3.577 2.124-6.57 2.137-6.75.38-12.077.84-16.495 2.131l.523 2.749m-38.705 0h-1.268l-1.38-6.03c7.12-.574 14.755-.772 22.036-.772 3.421 0 6.764.044 9.939.113l.311.92c-2.82-.054-5.76-.088-8.762-.088-7.28 0-14.918.198-22.04.773l1.164 5.084"/>
        <path fill="#2540A5" d="M75.273 121.552h-1.305l-.58-3.051h1.306l.579 3.05m-38.585 0h-1.27l-.697-3.05h1.268l.699 3.05"/>
        <path fill="#B7C1EB" d="M76.377 127.362h-1.305l-1.104-5.81h1.305l1.104 5.81m-38.36 0H36.75l-1.33-5.81h1.269l1.33 5.81"/>
        <path fill="#F8D8B8" d="M34.848 73.354s.272-1.592-.436-1.665c-.945-.1-1.141 1.072-1.184 1.523.018-.417-.012-1.491-.793-1.542-.788-.05-.952.994-.986 1.388l-.01-.001c-.013-.42-.135-1.603-1.07-1.65-.703-.035-.9.587-.947 1.067 0 .07-.005.138-.013.204a3 3 0 0 1 .013-.204c.005-.477-.176-1.04-.742-1.123-.638-.06-.873 1.523-.873 1.523-7.057 41.878 10.31 46.819 17.77 7.2l-6.408-1.229c-2.858 11.807-5.45 18.053-5.87 19.192-.213.579-.75-7.991 1.549-24.683"/>
        <path fill="#87A994" d="M33.673 83.574v-.002c.066-.731.138-1.488.218-2.273v.002c-.08.784-.152 1.541-.218 2.273M29.41 72.678c0-.033.002-.067.005-.102 0 .003.003.007.004.01a2.073 2.073 0 0 1-.01.092m-.513-1.266"/>
        <path fill="#ECCEAE" d="M33.673 83.572a183.423 183.423 0 0 0-1.86-3.714s-1.742-3.118-3.74-7.94c.131-.306.318-.569.572-.569.012 0 .023 0 .035.002a.86.86 0 0 1 .215.061c.175.399.348.788.519 1.164-.003.035-.004.07-.005.102l.009-.092c1.986 4.38 3.634 7.162 3.634 7.162.288.528.567 1.044.839 1.551-.08.785-.152 1.542-.218 2.273"/>
        <path fill="#87A994" d="M36.276 89.45a161.362 161.362 0 0 1 0 0"/>
        <path fill="#ECCEAE" d="M38.992 100.954c-.29-4.004-1.187-7.592-2.716-11.504.207-.672.42-1.384.64-2.136 1.725 3.755 2.88 7.12 3.499 10.728a37.82 37.82 0 0 1-1.423 2.912"/>
        <path fill="#F8D8B8" d="M33.052 79.748S-2.019 20.535 56.438 18.432c0 0 20.663 4.142 35.635 35.7-43.288 31.473-59.02 25.616-59.02 25.616"/>
        <path fill="#463828" d="M.092 16.503s2.963 44.849 56.947 10.983l9.97 10.941s2.762-7.692 6.945-2.79c4.181 4.904-3.712 6.246-3.712 6.246s13.05 11.76 21.83 12.248c0 0-8.775-67.452-34.591-48.386 0 0-6.03-10.172-22.184-3.352C18.555 9.461 17.409 33.984.092 16.503"/>
        <path fill="#4D4235" d="M40.957 104.778l-12.034 2.05c-2.26.385-3.594 2.741-2.758 4.868l7.807 19.881s-8.519.769-9.093 7.054c-1.095 11.993 13.218-5.383 13.218-5.383l-4.756-20.776c10.466-.845 22.044-.876 31.975-.66l7.511 22.218s-8.257-.515-9.953 5.565c-3.237 11.602 13.891-3.317 13.891-3.317l-4.078-21.47c4.416-1.293 9.743-1.753 16.495-2.132 9.169-.039 9.997-8.472 9.997-8.472l-58.222.574"/>
        <path fill="#F8F7F5" d="M33.052 79.748c5.39 9.877 7.905 15.968 7.905 25.03 0 0 26.123 3.015 58.222-.574 1.933-16.422.058-31.033-7.106-50.073 0 0-36.386 23.302-59.02 25.617"/>
        <path fill="#443C30" d="M54.89 110.034l-1.067-1.135 3.95-3.07c.792.023 1.608.045 2.445.063l-5.329 4.142"/>
        <path fill="#DADAD5" d="M60.218 105.892a314.65 314.65 0 0 1-2.445-.063l2.241-1.742L56.508 84l5.232 20.71-1.522 1.183"/>
        <path fill="#4D4235" d="M57.26 77.473l1.562 3.03L56.508 84l3.506 20.088-6.851 5.326-5.613-5.978 4.512-19.142-2.58-3.774 1.43-2.434 6.348-.612"/>
        <path fill="#463828" d="M32.818 53.01c.88 2.144.766 4.223-.254 4.642-1.02.42-2.56-.98-3.44-3.125-.878-2.146-.764-4.224.255-4.643 1.02-.42 2.559.981 3.44 3.126M58.328 43.555c.88 2.144.77 4.223-.253 4.642-1.018.417-2.56-.982-3.437-3.128-.88-2.144-.768-4.222.252-4.641 1.02-.419 2.56.98 3.438 3.127M23.87 54.304a.561.561 0 0 1-.43-.924 37.962 37.962 0 0 0 6.163-10.145.564.564 0 0 1 .734-.308.561.561 0 0 1 .31.731A39.112 39.112 0 0 1 24.3 54.104a.563.563 0 0 1-.43.2M61.704 39.555l-.04-.002c-4.697-.334-8.616-1.168-11.984-2.55a.56.56 0 0 1-.306-.732.564.564 0 0 1 .735-.305c3.254 1.335 7.06 2.142 11.634 2.468a.562.562 0 0 1-.04 1.121M40.15 70.37a.56.56 0 0 1-.486-.846c5.4-9.178 11.597-13.127 18.413-11.74a.56.56 0 1 1-.225 1.1c-6.383-1.3-12.014 2.367-17.216 11.208a.564.564 0 0 1-.487.277"/>
        <path fill="#ECCEAE" d="M56.86 72.743c-.095-.538-.188-1.084-.278-1.634 0 0-.213-1.588.417-1.704a.869.869 0 0 1 .115-.008c.497 0 .79.455.909.882-.087-.473-.07-1.126.616-1.286a.998.998 0 0 1 .225-.027c.76 0 1.141.953 1.26 1.318l.01-.001c-.077-.387-.209-1.437.562-1.605a.782.782 0 0 1 .163-.018c.65 0 .935.906 1.026 1.28-.083-.444-.219-1.624.717-1.79a.46.46 0 0 1 .075-.006c.638 0 .804 1.488.804 1.488l.027.144a189.653 189.653 0 0 1-6.649 2.967"/>
        <path fill="#493F32" d="M74.634 109.34c-1.932 0-3.931-1.14-5.896-3.384 3.614-.022 7.486-.11 11.562-.292-1.744 2.462-3.669 3.675-5.666 3.675"/>
        <path fill="#E9E9E4" d="M68.738 105.956c-3.774-4.312-7.422-12.713-10.23-24.979l.314-.473-.734-1.424a165.454 165.454 0 0 1-1.229-6.337 189.653 189.653 0 0 0 6.649-2.967c3.89 21.07 7.595 30.936 10.719 30.936 2.826 0 5.178-8.072 6.767-23.218l.43-6.015 6.768-.14-.686 6.563c-1.24 13.911-3.894 23.088-7.206 27.762-4.076.182-7.948.27-11.562.292"/>
        <path fill="#493F32" d="M58.509 80.977c-.143-.623-.283-1.254-.421-1.897l.734 1.424-.313.473"/>
        <path fill="#F8D8B8" d="M64.24 70.365s-.09-1.611-.796-1.527c-.943.114-.873 1.3-.814 1.749-.076-.41-.345-1.451-1.118-1.326-.78.125-.705 1.18-.65 1.571l-.01.001c-.107-.405-.49-1.532-1.412-1.37-.694.122-.746.773-.685 1.25.015.07.026.137.033.203a2.775 2.775 0 0 1-.033-.202c-.102-.466-.404-.975-.974-.93-.636.083-.51 1.68-.51 1.68 5.196 47.533 23.35 51.442 29.875 6.39l-6.48-.762c-5.097 31.699-11.228 33.896-16.425-6.727"/>
        <path fill="#F8F7F5" d="M80.666 77.092l.76-5.983 6.766.23-1.046 6.515-6.48-.762"/>
    </g>
</svg>
