<svg xmlns="http://www.w3.org/2000/svg" width="20" height="20" viewBox="0 0 20 20">
    <path fill="none" fill-rule="nonzero" stroke="#000" d="M18.774 8.974a.5.5 0 0 0 .5-.5V1a.5.5 0 0 0-.5-.5h-7.21a.5.5 0 0 0-.5.5v7.474a.5.5 0 0 0 .5.5h7.21zM9.01 1a.5.5 0 0 0-.5-.5H1.3a.5.5 0 0 0-.5.5v2.21a.5.5 0 0 0 .5.5h7.21a.5.5 0 0 0 .5-.5V1zM1.3 5.763a.5.5 0 0 0-.5.5V19a.5.5 0 0 0 .5.5h7.21a.5.5 0 0 0 .5-.5V6.263a.5.5 0 0 0-.5-.5H1.3zM11.063 19a.5.5 0 0 0 .5.5h7.21a.5.5 0 0 0 .5-.5v-7.474a.5.5 0 0 0-.5-.5h-7.21a.5.5 0 0 0-.5.5V19z"/>
</svg>
