<svg xmlns="http://www.w3.org/2000/svg" width="24" height="18" viewBox="0 0 24 18">
    <path fill="#000" fill-rule="nonzero" stroke="#000" stroke-width=".2" d="M15.256 0c-1.89 0-3.472 1.31-3.86 3.057L8.81 2.315a.234.234 0 0 0-.131 0L2.167 4.16A.231.231 0 0 0 2 4.384v13.383a.23.23 0 0 0 .092.186.234.234 0 0 0 .206.038l6.446-1.825 6.446 1.825a.234.234 0 0 0 .131 0l6.512-1.846c.1-.03.168-.12.167-.224V2.538a.23.23 0 0 0-.092-.186.234.234 0 0 0-.206-.037l-2.58.75C18.74 1.313 17.15 0 15.256 0zm0 .461c1.93 0 3.488 1.533 3.488 3.426 0 1.863-1.274 3.814-3.488 6.15-2.214-2.336-3.489-4.287-3.489-6.15 0-1.893 1.558-3.426 3.489-3.426zm0 1.846c-.897 0-1.628.726-1.628 1.616 0 .889.731 1.615 1.628 1.615.896 0 1.628-.726 1.628-1.615 0-.89-.732-1.616-1.628-1.616zm0 .462a1.155 1.155 0 0 1 0 2.307 1.155 1.155 0 0 1-1.163-1.153c0-.64.518-1.154 1.163-1.154zm-6.744.08v12.9l-6.047 1.708v-12.9l6.047-1.709zm.465 0l2.347.677a3.83 3.83 0 0 0-.022.36c0 2.102 1.407 4.165 3.721 6.584v6.987l-6.046-1.709v-12.9zm12.558 0v12.9l-6.047 1.708V10.47c2.315-2.42 3.721-4.482 3.721-6.583 0-.122-.01-.242-.022-.361l2.348-.678z"/>
</svg>
